<?xml version="1.0" encoding="UTF-8" standalone="no"?>
<!DOCTYPE svg PUBLIC "-//W3C//DTD SVG 1.1//EN" "http://www.w3.org/Graphics/SVG/1.1/DTD/svg11.dtd">
<svg xmlns="http://www.w3.org/2000/svg" width="160px" height="160px" version="1.1" viewBox="0.00 0.00 326.00 333.00">
<g stroke-width="2.00" fill="none" stroke-linecap="butt">
<path stroke="#808d9e" vector-effect="non-scaling-stroke" d="
  M 208.13 271.41
  C 214.36 259.52 218.43 249.13 223.32 235.85
  A 1.50 1.49 -6.6 0 1 223.90 235.12
  Q 232.39 229.49 239.20 221.89
  A 0.79 0.78 -57.1 0 1 240.09 221.69
  C 241.58 222.33 242.04 223.47 241.92 225.18
  C 241.48 231.31 245.85 235.59 251.73 235.58
  C 264.14 235.54 265.55 215.17 251.08 216.01
  Q 250.57 216.04 250.22 215.66
  L 246.79 211.96
  Q 246.47 211.62 246.80 211.28
  C 255.35 202.67 260.64 188.22 262.20 176.75
  Q 262.90 171.60 263.42 166.31
  A 0.34 0.33 7.1 0 1 263.81 166.01
  L 274.19 167.84
  Q 274.70 167.93 274.89 168.42
  C 280.62 183.77 299.78 185.44 308.36 171.65
  C 314.88 161.16 308.26 147.60 297.11 144.69
  C 287.73 142.24 279.10 146.72 275.39 155.68
  Q 275.18 156.19 274.64 156.06
  L 263.97 153.45
  Q 263.38 153.30 263.34 152.70
  Q 262.19 138.17 255.26 125.42
  Q 254.84 124.65 254.07 125.06
  L 241.03 132.09
  Q 240.73 132.25 240.93 132.53
  Q 243.53 136.16 244.77 141.25
  Q 250.51 164.78 242.17 187.62
  A 0.58 0.58 0.0 0 1 241.33 187.92
  L 229.99 181.00
  Q 229.50 180.70 229.73 180.17
  C 237.19 162.61 233.46 145.80 225.33 129.88
  Q 225.21 129.65 225.43 129.51
  Q 242.90 118.58 262.54 112.44
  Q 263.02 112.29 263.18 112.76
  C 267.35 124.74 279.21 130.79 291.08 125.09
  C 300.75 120.46 304.11 108.66 298.65 99.61
  C 293.18 90.56 282.04 86.73 272.55 92.04
  C 268.21 94.47 266.71 97.10 263.85 100.93
  Q 263.52 101.36 263.00 101.47
  Q 254.51 103.35 247.26 108.13
  A 0.66 0.65 57.0 0 1 246.34 107.93
  Q 245.09 105.93 243.38 104.12
  Q 235.19 95.49 225.74 87.85
  A 1.00 1.00 0.0 0 0 224.30 88.04
  L 215.16 100.47
  A 0.67 0.67 0.0 0 0 215.34 101.43
  Q 221.88 105.69 227.04 111.56
  A 1.31 1.31 0.0 0 1 226.84 113.47
  L 217.94 120.12
  Q 217.50 120.44 217.12 120.06
  C 211.48 114.49 206.59 109.99 199.48 106.93
  Q 198.99 106.72 199.26 106.26
  Q 207.46 92.65 217.07 80.01
  Q 217.39 79.60 217.83 79.86
  C 224.52 83.88 234.79 80.42 235.50 72.26
  C 236.63 59.08 217.25 54.43 212.66 67.06
  Q 212.20 68.33 211.82 69.65
  C 211.01 72.42 208.21 75.40 206.36 77.45
  A 1.31 1.31 0.0 0 1 204.43 77.48
  L 174.38 45.96
  Q 173.96 45.52 174.32 45.04
  Q 178.62 39.15 177.77 32.24
  C 176.10 18.79 165.58 10.73 152.43 11.14
  C 139.45 11.55 128.29 22.55 129.80 36.00
  Q 130.78 44.77 137.21 51.54
  Q 137.55 51.90 137.38 52.36
  L 128.50 77.59
  A 2.46 2.44 -89.9 0 1 127.01 79.09
  C 113.57 83.90 102.18 92.58 92.13 102.65
  Q 91.77 103.01 91.40 102.67
  L 87.87 99.44
  Q 87.52 99.12 87.62 98.66
  C 89.61 89.42 80.34 84.77 72.74 87.81
  C 59.84 92.98 67.19 113.23 80.99 107.75
  A 0.72 0.71 -30.8 0 1 81.80 107.95
  L 84.20 110.73
  A 0.72 0.72 0.0 0 1 84.26 111.61
  C 79.04 119.35 75.95 123.66 73.27 130.87
  Q 73.11 131.32 72.66 131.12
  L 51.17 121.40
  A 0.90 0.85 -1.5 0 1 50.76 121.03
  C 44.84 110.58 32.44 107.18 22.53 113.77
  C 10.19 121.97 12.71 140.01 24.91 146.26
  C 35.19 151.53 47.52 146.77 51.60 136.08
  A 0.61 0.60 23.1 0 1 52.43 135.75
  L 68.79 144.02
  Q 69.18 144.22 69.08 144.64
  C 65.49 159.51 65.87 175.63 72.82 189.56
  Q 73.03 189.97 73.43 189.74
  L 86.51 182.38
  A 0.80 0.79 -22.7 0 0 86.89 181.46
  Q 83.14 168.90 84.49 155.77
  C 87.59 125.69 106.39 104.62 133.52 92.99
  Q 156.56 83.11 180.73 87.60
  Q 186.57 88.69 192.38 89.87
  A 0.16 0.16 0.0 0 1 192.47 90.13
  L 184.78 99.80
  A 0.56 0.55 24.5 0 1 184.23 100.00
  Q 151.20 93.33 125.41 111.82
  C 101.99 128.62 92.37 156.32 102.95 183.32
  A 0.56 0.55 64.0 0 1 102.72 184.00
  Q 85.17 194.59 65.75 201.18
  Q 65.23 201.36 65.06 200.83
  C 59.53 183.49 35.16 184.26 29.17 201.32
  C 25.89 210.69 31.14 221.65 39.89 225.09
  C 50.50 229.26 60.66 224.67 65.06 214.17
  Q 65.67 212.73 66.29 211.27
  Q 66.48 210.81 66.97 210.74
  Q 72.91 209.81 78.24 207.08
  Q 78.50 206.95 78.64 207.20
  C 84.26 217.21 93.04 228.84 103.07 234.81
  Q 103.49 235.06 103.26 235.50
  L 100.08 241.62
  Q 99.85 242.05 99.37 242.11
  C 92.55 243.01 87.20 245.85 86.44 253.33
  C 85.81 259.53 89.66 265.04 95.77 266.31
  C 106.07 268.43 112.72 259.10 108.61 249.67
  Q 108.41 249.21 108.68 248.78
  C 110.18 246.44 111.75 245.18 113.06 242.75
  A 1.46 1.46 0.0 0 1 115.10 242.20
  Q 124.88 248.06 136.23 250.93
  C 139.77 251.82 141.45 253.73 143.86 256.14
  Q 155.53 267.83 166.90 279.78
  Q 167.24 280.14 167.09 280.60
  C 163.08 292.62 170.77 306.00 182.28 309.82
  C 197.29 314.79 215.15 304.53 214.41 287.28
  C 214.19 281.96 212.31 275.81 208.26 272.13
  Q 207.91 271.82 208.13 271.41"
/>
<path stroke="#7b5d6e" vector-effect="non-scaling-stroke" d="
  M 164.6841 34.4419
  A 10.80 10.40 -1.9 0 0 153.5452 24.4057
  A 10.80 10.40 -1.9 0 0 143.0959 35.1581
  A 10.80 10.40 -1.9 0 0 154.2348 45.1943
  A 10.80 10.40 -1.9 0 0 164.6841 34.4419"
/>
<path stroke="#808d9e" vector-effect="non-scaling-stroke" d="
  M 145.05 72.37
  Q 161.67 68.71 178.51 71.34
  Q 179.76 71.54 178.86 70.65
  L 164.04 55.94
  A 0.92 0.90 57.0 0 0 163.10 55.73
  Q 156.93 57.98 150.38 57.51
  A 0.88 0.86 -79.0 0 0 149.49 58.12
  L 144.97 72.28
  A 0.07 0.07 0.0 0 0 145.05 72.37"
/>
<path stroke="#347d96" vector-effect="non-scaling-stroke" d="
  M 217.9693 161.2303
  A 51.51 48.94 -0.3 0 0 166.2038 112.5607
  A 51.51 48.94 -0.3 0 0 114.9507 161.7697
  A 51.51 48.94 -0.3 0 0 166.7162 210.4393
  A 51.51 48.94 -0.3 0 0 217.9693 161.2303"
/>
<path stroke="#808d9e" vector-effect="non-scaling-stroke" d="
  M 184.77 222.76
  C 157.41 230.88 126.93 221.69 110.30 198.10
  A 0.52 0.52 0.0 0 0 109.59 197.96
  L 98.26 205.05
  A 0.52 0.51 -33.7 0 0 98.11 205.78
  C 112.78 227.40 139.61 240.07 165.49 239.14
  C 192.47 238.18 218.99 225.66 234.53 202.37
  A 0.83 0.83 0.0 0 0 234.24 201.19
  L 223.18 195.01
  A 0.34 0.33 31.0 0 0 222.73 195.12
  C 214.04 209.13 200.95 217.96 184.77 222.76"
/>
<path stroke="#808d9e" vector-effect="non-scaling-stroke" d="
  M 196.37 264.23
  L 203.90 246.57
  A 0.40 0.37 -1.3 0 0 203.37 246.09
  Q 184.35 254.33 163.56 254.18
  Q 162.48 254.17 163.21 254.97
  L 175.78 268.60
  A 0.24 0.23 47.6 0 0 176.11 268.62
  C 181.88 263.74 188.36 263.51 195.61 264.65
  A 0.72 0.72 0.0 0 0 196.37 264.23"
/>
<path stroke="#347d96" vector-effect="non-scaling-stroke" d="
  M 200.1560 287.5176
  A 10.30 9.90 1.6 0 0 190.1364 277.3339
  A 10.30 9.90 1.6 0 0 179.5640 286.9424
  A 10.30 9.90 1.6 0 0 189.5836 297.1261
  A 10.30 9.90 1.6 0 0 200.1560 287.5176"
/>
<path stroke="#347d96" vector-effect="non-scaling-stroke" d="
  M 206.0140 160.7366
  A 39.16 36.95 -1.0 0 0 166.2151 124.4756
  A 39.16 36.95 -1.0 0 0 127.7060 162.1034
  A 39.16 36.95 -1.0 0 0 167.5049 198.3644
  A 39.16 36.95 -1.0 0 0 206.0140 160.7366"
/>
<path stroke="#7b5d6e" vector-effect="non-scaling-stroke" d="
  M 190.8994 161.4080
  A 24.06 22.80 0.4 0 0 166.9992 138.4406
  A 24.06 22.80 0.4 0 0 142.7806 161.0720
  A 24.06 22.80 0.4 0 0 166.6808 184.0394
  A 24.06 22.80 0.4 0 0 190.8994 161.4080"
/>
</g>
<path  d="
  M 0.00 0.00
  L 326.00 0.00
  L 326.00 333.00
  L 0.00 333.00
  L 0.00 0.00
  Z
  M 208.13 271.41
  C 214.36 259.52 218.43 249.13 223.32 235.85
  A 1.50 1.49 -6.6 0 1 223.90 235.12
  Q 232.39 229.49 239.20 221.89
  A 0.79 0.78 -57.1 0 1 240.09 221.69
  C 241.58 222.33 242.04 223.47 241.92 225.18
  C 241.48 231.31 245.85 235.59 251.73 235.58
  C 264.14 235.54 265.55 215.17 251.08 216.01
  Q 250.57 216.04 250.22 215.66
  L 246.79 211.96
  Q 246.47 211.62 246.80 211.28
  C 255.35 202.67 260.64 188.22 262.20 176.75
  Q 262.90 171.60 263.42 166.31
  A 0.34 0.33 7.1 0 1 263.81 166.01
  L 274.19 167.84
  Q 274.70 167.93 274.89 168.42
  C 280.62 183.77 299.78 185.44 308.36 171.65
  C 314.88 161.16 308.26 147.60 297.11 144.69
  C 287.73 142.24 279.10 146.72 275.39 155.68
  Q 275.18 156.19 274.64 156.06
  L 263.97 153.45
  Q 263.38 153.30 263.34 152.70
  Q 262.19 138.17 255.26 125.42
  Q 254.84 124.65 254.07 125.06
  L 241.03 132.09
  Q 240.73 132.25 240.93 132.53
  Q 243.53 136.16 244.77 141.25
  Q 250.51 164.78 242.17 187.62
  A 0.58 0.58 0.0 0 1 241.33 187.92
  L 229.99 181.00
  Q 229.50 180.70 229.73 180.17
  C 237.19 162.61 233.46 145.80 225.33 129.88
  Q 225.21 129.65 225.43 129.51
  Q 242.90 118.58 262.54 112.44
  Q 263.02 112.29 263.18 112.76
  C 267.35 124.74 279.21 130.79 291.08 125.09
  C 300.75 120.46 304.11 108.66 298.65 99.61
  C 293.18 90.56 282.04 86.73 272.55 92.04
  C 268.21 94.47 266.71 97.10 263.85 100.93
  Q 263.52 101.36 263.00 101.47
  Q 254.51 103.35 247.26 108.13
  A 0.66 0.65 57.0 0 1 246.34 107.93
  Q 245.09 105.93 243.38 104.12
  Q 235.19 95.49 225.74 87.85
  A 1.00 1.00 0.0 0 0 224.30 88.04
  L 215.16 100.47
  A 0.67 0.67 0.0 0 0 215.34 101.43
  Q 221.88 105.69 227.04 111.56
  A 1.31 1.31 0.0 0 1 226.84 113.47
  L 217.94 120.12
  Q 217.50 120.44 217.12 120.06
  C 211.48 114.49 206.59 109.99 199.48 106.93
  Q 198.99 106.72 199.26 106.26
  Q 207.46 92.65 217.07 80.01
  Q 217.39 79.60 217.83 79.86
  C 224.52 83.88 234.79 80.42 235.50 72.26
  C 236.63 59.08 217.25 54.43 212.66 67.06
  Q 212.20 68.33 211.82 69.65
  C 211.01 72.42 208.21 75.40 206.36 77.45
  A 1.31 1.31 0.0 0 1 204.43 77.48
  L 174.38 45.96
  Q 173.96 45.52 174.32 45.04
  Q 178.62 39.15 177.77 32.24
  C 176.10 18.79 165.58 10.73 152.43 11.14
  C 139.45 11.55 128.29 22.55 129.80 36.00
  Q 130.78 44.77 137.21 51.54
  Q 137.55 51.90 137.38 52.36
  L 128.50 77.59
  A 2.46 2.44 -89.9 0 1 127.01 79.09
  C 113.57 83.90 102.18 92.58 92.13 102.65
  Q 91.77 103.01 91.40 102.67
  L 87.87 99.44
  Q 87.52 99.12 87.62 98.66
  C 89.61 89.42 80.34 84.77 72.74 87.81
  C 59.84 92.98 67.19 113.23 80.99 107.75
  A 0.72 0.71 -30.8 0 1 81.80 107.95
  L 84.20 110.73
  A 0.72 0.72 0.0 0 1 84.26 111.61
  C 79.04 119.35 75.95 123.66 73.27 130.87
  Q 73.11 131.32 72.66 131.12
  L 51.17 121.40
  A 0.90 0.85 -1.5 0 1 50.76 121.03
  C 44.84 110.58 32.44 107.18 22.53 113.77
  C 10.19 121.97 12.71 140.01 24.91 146.26
  C 35.19 151.53 47.52 146.77 51.60 136.08
  A 0.61 0.60 23.1 0 1 52.43 135.75
  L 68.79 144.02
  Q 69.18 144.22 69.08 144.64
  C 65.49 159.51 65.87 175.63 72.82 189.56
  Q 73.03 189.97 73.43 189.74
  L 86.51 182.38
  A 0.80 0.79 -22.7 0 0 86.89 181.46
  Q 83.14 168.90 84.49 155.77
  C 87.59 125.69 106.39 104.62 133.52 92.99
  Q 156.56 83.11 180.73 87.60
  Q 186.57 88.69 192.38 89.87
  A 0.16 0.16 0.0 0 1 192.47 90.13
  L 184.78 99.80
  A 0.56 0.55 24.5 0 1 184.23 100.00
  Q 151.20 93.33 125.41 111.82
  C 101.99 128.62 92.37 156.32 102.95 183.32
  A 0.56 0.55 64.0 0 1 102.72 184.00
  Q 85.17 194.59 65.75 201.18
  Q 65.23 201.36 65.06 200.83
  C 59.53 183.49 35.16 184.26 29.17 201.32
  C 25.89 210.69 31.14 221.65 39.89 225.09
  C 50.50 229.26 60.66 224.67 65.06 214.17
  Q 65.67 212.73 66.29 211.27
  Q 66.48 210.81 66.97 210.74
  Q 72.91 209.81 78.24 207.08
  Q 78.50 206.95 78.64 207.20
  C 84.26 217.21 93.04 228.84 103.07 234.81
  Q 103.49 235.06 103.26 235.50
  L 100.08 241.62
  Q 99.85 242.05 99.37 242.11
  C 92.55 243.01 87.20 245.85 86.44 253.33
  C 85.81 259.53 89.66 265.04 95.77 266.31
  C 106.07 268.43 112.72 259.10 108.61 249.67
  Q 108.41 249.21 108.68 248.78
  C 110.18 246.44 111.75 245.18 113.06 242.75
  A 1.46 1.46 0.0 0 1 115.10 242.20
  Q 124.88 248.06 136.23 250.93
  C 139.77 251.82 141.45 253.73 143.86 256.14
  Q 155.53 267.83 166.90 279.78
  Q 167.24 280.14 167.09 280.60
  C 163.08 292.62 170.77 306.00 182.28 309.82
  C 197.29 314.79 215.15 304.53 214.41 287.28
  C 214.19 281.96 212.31 275.81 208.26 272.13
  Q 207.91 271.82 208.13 271.41
  Z"
/>
<path fill="#001b3c" d="
  M 208.26 272.13
  C 212.31 275.81 214.19 281.96 214.41 287.28
  C 215.15 304.53 197.29 314.79 182.28 309.82
  C 170.77 306.00 163.08 292.62 167.09 280.60
  Q 167.24 280.14 166.90 279.78
  Q 155.53 267.83 143.86 256.14
  C 141.45 253.73 139.77 251.82 136.23 250.93
  Q 124.88 248.06 115.10 242.20
  A 1.46 1.46 0.0 0 0 113.06 242.75
  C 111.75 245.18 110.18 246.44 108.68 248.78
  Q 108.41 249.21 108.61 249.67
  C 112.72 259.10 106.07 268.43 95.77 266.31
  C 89.66 265.04 85.81 259.53 86.44 253.33
  C 87.20 245.85 92.55 243.01 99.37 242.11
  Q 99.85 242.05 100.08 241.62
  L 103.26 235.50
  Q 103.49 235.06 103.07 234.81
  C 93.04 228.84 84.26 217.21 78.64 207.20
  Q 78.50 206.95 78.24 207.08
  Q 72.91 209.81 66.97 210.74
  Q 66.48 210.81 66.29 211.27
  Q 65.67 212.73 65.06 214.17
  C 60.66 224.67 50.50 229.26 39.89 225.09
  C 31.14 221.65 25.89 210.69 29.17 201.32
  C 35.16 184.26 59.53 183.49 65.06 200.83
  Q 65.23 201.36 65.75 201.18
  Q 85.17 194.59 102.72 184.00
  A 0.56 0.55 64.0 0 0 102.95 183.32
  C 92.37 156.32 101.99 128.62 125.41 111.82
  Q 151.20 93.33 184.23 100.00
  A 0.56 0.55 24.5 0 0 184.78 99.80
  L 192.47 90.13
  A 0.16 0.16 0.0 0 0 192.38 89.87
  Q 186.57 88.69 180.73 87.60
  Q 156.56 83.11 133.52 92.99
  C 106.39 104.62 87.59 125.69 84.49 155.77
  Q 83.14 168.90 86.89 181.46
  A 0.80 0.79 -22.7 0 1 86.51 182.38
  L 73.43 189.74
  Q 73.03 189.97 72.82 189.56
  C 65.87 175.63 65.49 159.51 69.08 144.64
  Q 69.18 144.22 68.79 144.02
  L 52.43 135.75
  A 0.61 0.60 23.1 0 0 51.60 136.08
  C 47.52 146.77 35.19 151.53 24.91 146.26
  C 12.71 140.01 10.19 121.97 22.53 113.77
  C 32.44 107.18 44.84 110.58 50.76 121.03
  A 0.90 0.85 -1.5 0 0 51.17 121.40
  L 72.66 131.12
  Q 73.11 131.32 73.27 130.87
  C 75.95 123.66 79.04 119.35 84.26 111.61
  A 0.72 0.72 0.0 0 0 84.20 110.73
  L 81.80 107.95
  A 0.72 0.71 -30.8 0 0 80.99 107.75
  C 67.19 113.23 59.84 92.98 72.74 87.81
  C 80.34 84.77 89.61 89.42 87.62 98.66
  Q 87.52 99.12 87.87 99.44
  L 91.40 102.67
  Q 91.77 103.01 92.13 102.65
  C 102.18 92.58 113.57 83.90 127.01 79.09
  A 2.46 2.44 -89.9 0 0 128.50 77.59
  L 137.38 52.36
  Q 137.55 51.90 137.21 51.54
  Q 130.78 44.77 129.80 36.00
  C 128.29 22.55 139.45 11.55 152.43 11.14
  C 165.58 10.73 176.10 18.79 177.77 32.24
  Q 178.62 39.15 174.32 45.04
  Q 173.96 45.52 174.38 45.96
  L 204.43 77.48
  A 1.31 1.31 0.0 0 0 206.36 77.45
  C 208.21 75.40 211.01 72.42 211.82 69.65
  Q 212.20 68.33 212.66 67.06
  C 217.25 54.43 236.63 59.08 235.50 72.26
  C 234.79 80.42 224.52 83.88 217.83 79.86
  Q 217.39 79.60 217.07 80.01
  Q 207.46 92.65 199.26 106.26
  Q 198.99 106.72 199.48 106.93
  C 206.59 109.99 211.48 114.49 217.12 120.06
  Q 217.50 120.44 217.94 120.12
  L 226.84 113.47
  A 1.31 1.31 0.0 0 0 227.04 111.56
  Q 221.88 105.69 215.34 101.43
  A 0.67 0.67 0.0 0 1 215.16 100.47
  L 224.30 88.04
  A 1.00 1.00 0.0 0 1 225.74 87.85
  Q 235.19 95.49 243.38 104.12
  Q 245.09 105.93 246.34 107.93
  A 0.66 0.65 57.0 0 0 247.26 108.13
  Q 254.51 103.35 263.00 101.47
  Q 263.52 101.36 263.85 100.93
  C 266.71 97.10 268.21 94.47 272.55 92.04
  C 282.04 86.73 293.18 90.56 298.65 99.61
  C 304.11 108.66 300.75 120.46 291.08 125.09
  C 279.21 130.79 267.35 124.74 263.18 112.76
  Q 263.02 112.29 262.54 112.44
  Q 242.90 118.58 225.43 129.51
  Q 225.21 129.65 225.33 129.88
  C 233.46 145.80 237.19 162.61 229.73 180.17
  Q 229.50 180.70 229.99 181.00
  L 241.33 187.92
  A 0.58 0.58 0.0 0 0 242.17 187.62
  Q 250.51 164.78 244.77 141.25
  Q 243.53 136.16 240.93 132.53
  Q 240.73 132.25 241.03 132.09
  L 254.07 125.06
  Q 254.84 124.65 255.26 125.42
  Q 262.19 138.17 263.34 152.70
  Q 263.38 153.30 263.97 153.45
  L 274.64 156.06
  Q 275.18 156.19 275.39 155.68
  C 279.10 146.72 287.73 142.24 297.11 144.69
  C 308.26 147.60 314.88 161.16 308.36 171.65
  C 299.78 185.44 280.62 183.77 274.89 168.42
  Q 274.70 167.93 274.19 167.84
  L 263.81 166.01
  A 0.34 0.33 7.1 0 0 263.42 166.31
  Q 262.90 171.60 262.20 176.75
  C 260.64 188.22 255.35 202.67 246.80 211.28
  Q 246.47 211.62 246.79 211.96
  L 250.22 215.66
  Q 250.57 216.04 251.08 216.01
  C 265.55 215.17 264.14 235.54 251.73 235.58
  C 245.85 235.59 241.48 231.31 241.92 225.18
  C 242.04 223.47 241.58 222.33 240.09 221.69
  A 0.79 0.78 -57.1 0 0 239.20 221.89
  Q 232.39 229.49 223.90 235.12
  A 1.50 1.49 -6.6 0 0 223.32 235.85
  C 218.43 249.13 214.36 259.52 208.13 271.41
  Q 207.91 271.82 208.26 272.13
  Z
  M 164.6841 34.4419
  A 10.80 10.40 -1.9 0 0 153.5452 24.4057
  A 10.80 10.40 -1.9 0 0 143.0959 35.1581
  A 10.80 10.40 -1.9 0 0 154.2348 45.1943
  A 10.80 10.40 -1.9 0 0 164.6841 34.4419
  Z
  M 145.05 72.37
  Q 161.67 68.71 178.51 71.34
  Q 179.76 71.54 178.86 70.65
  L 164.04 55.94
  A 0.92 0.90 57.0 0 0 163.10 55.73
  Q 156.93 57.98 150.38 57.51
  A 0.88 0.86 -79.0 0 0 149.49 58.12
  L 144.97 72.28
  A 0.07 0.07 0.0 0 0 145.05 72.37
  Z
  M 217.9693 161.2303
  A 51.51 48.94 -0.3 0 0 166.2038 112.5607
  A 51.51 48.94 -0.3 0 0 114.9507 161.7697
  A 51.51 48.94 -0.3 0 0 166.7162 210.4393
  A 51.51 48.94 -0.3 0 0 217.9693 161.2303
  Z
  M 184.77 222.76
  C 157.41 230.88 126.93 221.69 110.30 198.10
  A 0.52 0.52 0.0 0 0 109.59 197.96
  L 98.26 205.05
  A 0.52 0.51 -33.7 0 0 98.11 205.78
  C 112.78 227.40 139.61 240.07 165.49 239.14
  C 192.47 238.18 218.99 225.66 234.53 202.37
  A 0.83 0.83 0.0 0 0 234.24 201.19
  L 223.18 195.01
  A 0.34 0.33 31.0 0 0 222.73 195.12
  C 214.04 209.13 200.95 217.96 184.77 222.76
  Z
  M 196.37 264.23
  L 203.90 246.57
  A 0.40 0.37 -1.3 0 0 203.37 246.09
  Q 184.35 254.33 163.56 254.18
  Q 162.48 254.17 163.21 254.97
  L 175.78 268.60
  A 0.24 0.23 47.6 0 0 176.11 268.62
  C 181.88 263.74 188.36 263.51 195.61 264.65
  A 0.72 0.72 0.0 0 0 196.37 264.23
  Z
  M 200.1560 287.5176
  A 10.30 9.90 1.6 0 0 190.1364 277.3339
  A 10.30 9.90 1.6 0 0 179.5640 286.9424
  A 10.30 9.90 1.6 0 0 189.5836 297.1261
  A 10.30 9.90 1.6 0 0 200.1560 287.5176
  Z"
/>
<ellipse fill="#f69ea0" cx="0.00" cy="0.00" transform="translate(153.89,34.80) rotate(-1.9)" rx="10.80" ry="10.40"/>
<path  d="
  M 145.05 72.37
  A 0.07 0.07 0.0 0 1 144.97 72.28
  L 149.49 58.12
  A 0.88 0.86 -79.0 0 1 150.38 57.51
  Q 156.93 57.98 163.10 55.73
  A 0.92 0.90 57.0 0 1 164.04 55.94
  L 178.86 70.65
  Q 179.76 71.54 178.51 71.34
  Q 161.67 68.71 145.05 72.37
  Z"
/>
<path fill="#68dff0" d="
  M 217.9693 161.2303
  A 51.51 48.94 -0.3 0 1 166.7162 210.4393
  A 51.51 48.94 -0.3 0 1 114.9507 161.7697
  A 51.51 48.94 -0.3 0 1 166.2038 112.5607
  A 51.51 48.94 -0.3 0 1 217.9693 161.2303
  Z
  M 206.0140 160.7366
  A 39.16 36.95 -1.0 0 0 166.2151 124.4756
  A 39.16 36.95 -1.0 0 0 127.7060 162.1034
  A 39.16 36.95 -1.0 0 0 167.5049 198.3644
  A 39.16 36.95 -1.0 0 0 206.0140 160.7366
  Z"
/>
<path fill="#001b3c" d="
  M 206.0140 160.7366
  A 39.16 36.95 -1.0 0 1 167.5049 198.3644
  A 39.16 36.95 -1.0 0 1 127.7060 162.1034
  A 39.16 36.95 -1.0 0 1 166.2151 124.4756
  A 39.16 36.95 -1.0 0 1 206.0140 160.7366
  Z
  M 190.8994 161.4080
  A 24.06 22.80 0.4 0 0 166.9992 138.4406
  A 24.06 22.80 0.4 0 0 142.7806 161.0720
  A 24.06 22.80 0.4 0 0 166.6808 184.0394
  A 24.06 22.80 0.4 0 0 190.8994 161.4080
  Z"
/>
<ellipse fill="#f69ea0" cx="0.00" cy="0.00" transform="translate(166.84,161.24) rotate(0.4)" rx="24.06" ry="22.80"/>
<path  d="
  M 110.30 198.10
  C 126.93 221.69 157.41 230.88 184.77 222.76
  C 200.95 217.96 214.04 209.13 222.73 195.12
  A 0.34 0.33 31.0 0 1 223.18 195.01
  L 234.24 201.19
  A 0.83 0.83 0.0 0 1 234.53 202.37
  C 218.99 225.66 192.47 238.18 165.49 239.14
  C 139.61 240.07 112.78 227.40 98.11 205.78
  A 0.52 0.51 -33.7 0 1 98.26 205.05
  L 109.59 197.96
  A 0.52 0.52 0.0 0 1 110.30 198.10
  Z"
/>
<path  d="
  M 203.90 246.57
  L 196.37 264.23
  A 0.72 0.72 0.0 0 1 195.61 264.65
  C 188.36 263.51 181.88 263.74 176.11 268.62
  A 0.24 0.23 47.6 0 1 175.78 268.60
  L 163.21 254.97
  Q 162.48 254.17 163.56 254.18
  Q 184.35 254.33 203.37 246.09
  A 0.40 0.37 -1.3 0 1 203.90 246.57
  Z"
/>
<ellipse fill="#68dff0" cx="0.00" cy="0.00" transform="translate(189.86,287.23) rotate(1.6)" rx="10.30" ry="9.90"/>
</svg>